<svg width="50" height="50" viewBox="0 0 50 50" fill="none" xmlns="http://www.w3.org/2000/svg">
<g filter="url(#filter0_b_189_6809)">
<rect width="50" height="50" rx="25" fill="#191919" fill-opacity="0.9"/>
</g>
<path d="M29.4475 22.6927C28.9146 22.5477 28.365 22.8621 28.22 23.395C28.0749 23.9279 28.3893 24.4775 28.9222 24.6225L29.4475 22.6927ZM20.8151 23.6576L21.7447 23.2891C21.5571 22.8158 21.0438 22.559 20.5525 22.6927L20.8151 23.6576ZM26.1849 26.3424L27.1145 25.9738C26.9268 25.5005 26.4135 25.2438 25.9222 25.3775L26.1849 26.3424ZM20.8443 23.7295L19.9213 24.1141L19.9213 24.1141L20.8443 23.7295ZM20.8536 23.7516L19.9326 24.1411L19.9326 24.1412L20.8536 23.7516ZM21.1065 24.2578L20.2419 24.7602H20.2419L21.1065 24.2578ZM24.3331 32.0993C25.3055 32.9696 26.592 33.5 28 33.5V31.5C27.1029 31.5 26.2868 31.1638 25.6669 30.609L24.3331 32.0993ZM28 33.5C31.0376 33.5 33.5 31.0376 33.5 28H31.5C31.5 29.933 29.933 31.5 28 31.5V33.5ZM33.5 28C33.5 25.4622 31.7821 23.3283 29.4475 22.6927L28.9222 24.6225C30.4085 25.0271 31.5 26.3874 31.5 28H33.5ZM20.5525 22.6927C18.2179 23.3283 16.5 25.4622 16.5 28H18.5C18.5 26.3874 19.5915 25.0271 21.0778 24.6225L20.5525 22.6927ZM16.5 28C16.5 31.0376 18.9624 33.5 22 33.5V31.5C20.067 31.5 18.5 29.933 18.5 28H16.5ZM22 33.5C25.0376 33.5 27.5 31.0376 27.5 28H25.5C25.5 29.933 23.933 31.5 22 31.5V33.5ZM27.5 28C27.5 27.2864 27.3636 26.6022 27.1145 25.9738L25.2552 26.7109C25.4129 27.1085 25.5 27.5429 25.5 28H27.5ZM28.5 22C28.5 23.933 26.933 25.5 25 25.5V27.5C28.0376 27.5 30.5 25.0376 30.5 22H28.5ZM21.5 22C21.5 20.067 23.067 18.5 25 18.5V16.5C21.9624 16.5 19.5 18.9624 19.5 22H21.5ZM25 18.5C26.933 18.5 28.5 20.067 28.5 22H30.5C30.5 18.9624 28.0376 16.5 25 16.5V18.5ZM22 33.5C23.408 33.5 24.6945 32.9696 25.6669 32.0993L24.3331 30.609C23.7132 31.1638 22.8971 31.5 22 31.5V33.5ZM25.6669 32.0993C26.7905 31.0936 27.5 29.629 27.5 28H25.5C25.5 29.0365 25.0507 29.9667 24.3331 30.609L25.6669 32.0993ZM25.9222 25.3775C25.6295 25.4572 25.3205 25.5 25 25.5V27.5C25.4996 27.5 25.9852 27.4331 26.4475 27.3073L25.9222 25.3775ZM19.9212 24.114C19.925 24.1231 19.9288 24.1321 19.9326 24.1411L21.7746 23.3621C21.7722 23.3563 21.7698 23.3506 21.7674 23.3449L19.9212 24.114ZM19.9326 24.1412C20.023 24.3548 20.1265 24.5615 20.2419 24.7602L21.9711 23.7553C21.8977 23.6289 21.832 23.4976 21.7746 23.3621L19.9326 24.1412ZM21.9711 23.7553C21.8946 23.6236 21.8264 23.4865 21.7674 23.3449L19.9213 24.1141C20.0143 24.3374 20.1216 24.5531 20.2419 24.7602L21.9711 23.7553ZM25 25.5C23.7083 25.5 22.5787 24.8007 21.9711 23.7553L20.2419 24.7602C21.1927 26.3963 22.9669 27.5 25 27.5V25.5ZM21.7674 23.3449C21.7597 23.3263 21.7522 23.3078 21.7447 23.2891L19.8855 24.0262C19.8972 24.0556 19.9091 24.0849 19.9213 24.1141L21.7674 23.3449ZM21.7674 23.3449C21.5955 22.9321 21.5 22.4785 21.5 22H19.5C19.5 22.7471 19.6495 23.4619 19.9213 24.1141L21.7674 23.3449Z" fill="white"/>
<defs>
<filter id="filter0_b_189_6809" x="-18" y="-18" width="86" height="86" filterUnits="userSpaceOnUse" color-interpolation-filters="sRGB">
<feFlood flood-opacity="0" result="BackgroundImageFix"/>
<feGaussianBlur in="BackgroundImage" stdDeviation="9"/>
<feComposite in2="SourceAlpha" operator="in" result="effect1_backgroundBlur_189_6809"/>
<feBlend mode="normal" in="SourceGraphic" in2="effect1_backgroundBlur_189_6809" result="shape"/>
</filter>
</defs>
</svg>
